<svg width="41" height="32" viewBox="0 0 41 32" fill="none" xmlns="http://www.w3.org/2000/svg">
<path d="M34.7082 2.65263C32.095 1.42484 29.2928 0.520263 26.3628 0.00217332C26.3095 -0.00782564 26.2562 0.0171623 26.2287 0.0671394C25.8683 0.723494 25.4691 1.57976 25.1895 2.25278C22.0382 1.76969 18.903 1.76969 15.8163 2.25278C15.5367 1.5648 15.123 0.723494 14.761 0.0671394C14.7335 0.0188298 14.6802 -0.00615816 14.6268 0.00217332C11.6985 0.518607 8.89625 1.42318 6.28143 2.65263C6.25879 2.66262 6.23939 2.67929 6.22651 2.70093C0.911211 10.8322 -0.544873 18.7636 0.169433 26.5967C0.172665 26.635 0.193674 26.6717 0.222763 26.695C3.72965 29.3321 7.12667 30.933 10.4606 31.9942C10.514 32.0108 10.5705 31.9909 10.6044 31.9459C11.3931 30.8431 12.0961 29.6803 12.6989 28.4575C12.7344 28.3858 12.7005 28.3009 12.6278 28.2726C11.5127 27.8394 10.4509 27.3113 9.42954 26.7116C9.34875 26.6633 9.34228 26.545 9.4166 26.4883C9.63154 26.3234 9.84653 26.1518 10.0518 25.9786C10.0889 25.947 10.1406 25.9403 10.1843 25.9603C16.8942 29.0972 24.1585 29.0972 30.7892 25.9603C30.8329 25.9386 30.8846 25.9453 30.9234 25.9769C31.1286 26.1502 31.3436 26.3234 31.5601 26.4883C31.6344 26.545 31.6296 26.6633 31.5488 26.7116C30.5274 27.323 29.4657 27.8394 28.349 28.2709C28.2763 28.2992 28.2439 28.3858 28.2795 28.4575C28.8952 29.6786 29.5982 30.8414 30.3723 31.9442C30.4046 31.9909 30.4628 32.0108 30.5161 31.9942C33.8662 30.933 37.2632 29.3321 40.7701 26.695C40.8008 26.6717 40.8202 26.6367 40.8235 26.5983C41.6783 17.5424 39.3916 9.67608 34.7615 2.70259C34.7502 2.67929 34.7309 2.66262 34.7082 2.65263ZM13.7009 21.8272C11.6807 21.8272 10.0162 19.9281 10.0162 17.5958C10.0162 15.2635 11.6484 13.3644 13.7009 13.3644C15.7694 13.3644 17.4178 15.2802 17.3855 17.5958C17.3855 19.9281 15.7532 21.8272 13.7009 21.8272ZM27.3244 21.8272C25.3043 21.8272 23.6397 19.9281 23.6397 17.5958C23.6397 15.2635 25.2719 13.3644 27.3244 13.3644C29.393 13.3644 31.0413 15.2802 31.0091 17.5958C31.0091 19.9281 29.393 21.8272 27.3244 21.8272Z" fill="white"/>
</svg>
