<svg width="36" height="36" viewBox="0 0 36 36" fill="none" xmlns="http://www.w3.org/2000/svg">
<path d="M24.6 36L11.45 31.35L2.5 34.9C1.93333 35.2 1.375 35.1833 0.825 34.85C0.275 34.5167 0 34.0167 0 33.35V5.45C0 5.01667 0.125 4.63333 0.375 4.3C0.625 3.96667 0.95 3.71667 1.35 3.55L11.45 0L24.6 4.6L33.5 1.05C34.0667 0.783334 34.625 0.808333 35.175 1.125C35.725 1.44167 36 1.93333 36 2.6V30.85C36 31.2167 35.875 31.5333 35.625 31.8C35.375 32.0667 35.0667 32.2667 34.7 32.4L24.6 36ZM22.9 32.25V7L13.1 3.7V28.95L22.9 32.25ZM25.9 32.25L33 29.9V4.3L25.9 7V32.25ZM3 31.65L10.1 28.95V3.7L3 6.05V31.65ZM25.9 7V32.25V7ZM10.1 3.7V28.95V3.7Z" fill="white"/>
</svg>
