<svg width="49" height="24" viewBox="0 0 49 24" fill="none" xmlns="http://www.w3.org/2000/svg">
<path d="M0.5 24V21.35C0.5 20.05 1.2 19 2.6 18.2C4 17.4 5.8 17 8 17C8.43333 17 8.83333 17.0083 9.2 17.025C9.56667 17.0417 9.93333 17.0833 10.3 17.15C10.0333 17.7167 9.83333 18.2917 9.7 18.875C9.56667 19.4583 9.5 20.0833 9.5 20.75V24H0.5ZM12.5 24V20.75C12.5 18.5833 13.6083 16.8333 15.825 15.5C18.0417 14.1667 20.9333 13.5 24.5 13.5C28.1 13.5 31 14.1667 33.2 15.5C35.4 16.8333 36.5 18.5833 36.5 20.75V24H12.5ZM39.5 24V20.75C39.5 20.0833 39.4417 19.4583 39.325 18.875C39.2083 18.2917 39.0167 17.7167 38.75 17.15C39.1167 17.0833 39.4833 17.0417 39.85 17.025C40.2167 17.0083 40.6 17 41 17C43.2667 17 45.0833 17.4 46.45 18.2C47.8167 19 48.5 20.05 48.5 21.35V24H39.5ZM24.5 16.5C21.8333 16.5 19.6667 16.9 18 17.7C16.3333 18.5 15.5 19.5167 15.5 20.75V21H33.5V20.7C33.5 19.5 32.675 18.5 31.025 17.7C29.375 16.9 27.2 16.5 24.5 16.5ZM8 15.5C7.03333 15.5 6.20833 15.1583 5.525 14.475C4.84167 13.7917 4.5 12.9667 4.5 12C4.5 11.0333 4.84167 10.2083 5.525 9.525C6.20833 8.84167 7.03333 8.5 8 8.5C8.96667 8.5 9.79167 8.84167 10.475 9.525C11.1583 10.2083 11.5 11.0333 11.5 12C11.5 12.9667 11.1583 13.7917 10.475 14.475C9.79167 15.1583 8.96667 15.5 8 15.5ZM41 15.5C40.0333 15.5 39.2083 15.1583 38.525 14.475C37.8417 13.7917 37.5 12.9667 37.5 12C37.5 11.0333 37.8417 10.2083 38.525 9.525C39.2083 8.84167 40.0333 8.5 41 8.5C41.9667 8.5 42.7917 8.84167 43.475 9.525C44.1583 10.2083 44.5 11.0333 44.5 12C44.5 12.9667 44.1583 13.7917 43.475 14.475C42.7917 15.1583 41.9667 15.5 41 15.5ZM24.5 12C22.8333 12 21.4167 11.4167 20.25 10.25C19.0833 9.08333 18.5 7.66667 18.5 6C18.5 4.3 19.0833 2.875 20.25 1.725C21.4167 0.575 22.8333 0 24.5 0C26.2 0 27.625 0.575 28.775 1.725C29.925 2.875 30.5 4.3 30.5 6C30.5 7.66667 29.925 9.08333 28.775 10.25C27.625 11.4167 26.2 12 24.5 12ZM24.5 3C23.6667 3 22.9583 3.28333 22.375 3.85C21.7917 4.41667 21.5 5.13333 21.5 6C21.5 6.83333 21.7917 7.54167 22.375 8.125C22.9583 8.70833 23.6667 9 24.5 9C25.3667 9 26.0833 8.70833 26.65 8.125C27.2167 7.54167 27.5 6.83333 27.5 6C27.5 5.13333 27.2167 4.41667 26.65 3.85C26.0833 3.28333 25.3667 3 24.5 3Z" fill="white"/>
</svg>
