<svg width="44" height="32" viewBox="0 0 44 32" fill="none" xmlns="http://www.w3.org/2000/svg">
<path d="M3.5 32C2.73333 32 2.04167 31.6917 1.425 31.075C0.808334 30.4583 0.5 29.7667 0.5 29V3C0.5 2.23333 0.808334 1.54167 1.425 0.925C2.04167 0.308334 2.73333 0 3.5 0H17.55L20.55 3H37.5C38.2667 3 38.9583 3.30833 39.575 3.925C40.1917 4.54167 40.5 5.23333 40.5 6H19.25L16.25 3H3.5V29L8.6 9H43.5L38.15 29.7C37.95 30.5 37.5833 31.0833 37.05 31.45C36.5167 31.8167 35.8333 32 35 32H3.5ZM6.65 29H35.25L39.45 12H10.85L6.65 29ZM6.65 29L10.85 12L6.65 29ZM3.5 6V3V6Z" fill="white"/>
</svg>
