<svg width="44" height="32" viewBox="0 0 44 32" fill="none" xmlns="http://www.w3.org/2000/svg">
<path d="M9.2 31.95C7.56667 31.95 6.175 31.375 5.025 30.225C3.875 29.075 3.3 27.6833 3.3 26.05H0V3C0 2.2 0.3 1.5 0.9 0.9C1.5 0.3 2.2 0 3 0H31.95V8.35H37.2L44 17.4V26.05H40.45C40.45 27.6833 39.875 29.075 38.725 30.225C37.575 31.375 36.1833 31.95 34.55 31.95C32.9167 31.95 31.525 31.375 30.375 30.225C29.225 29.075 28.65 27.6833 28.65 26.05H15.1C15.1 27.6833 14.525 29.075 13.375 30.225C12.225 31.375 10.8333 31.95 9.2 31.95ZM9.2 28.95C10 28.95 10.6833 28.6667 11.25 28.1C11.8167 27.5333 12.1 26.85 12.1 26.05C12.1 25.25 11.8167 24.5667 11.25 24C10.6833 23.4333 10 23.15 9.2 23.15C8.4 23.15 7.71667 23.4333 7.15 24C6.58333 24.5667 6.3 25.25 6.3 26.05C6.3 26.85 6.58333 27.5333 7.15 28.1C7.71667 28.6667 8.4 28.95 9.2 28.95ZM3 23.05H4.1C4.66667 22.15 5.38333 21.4333 6.25 20.9C7.11667 20.3667 8.08333 20.1 9.15 20.1C10.2167 20.1 11.1917 20.375 12.075 20.925C12.9583 21.475 13.6833 22.1833 14.25 23.05H28.95V3H3V23.05ZM34.55 28.95C35.35 28.95 36.0333 28.6667 36.6 28.1C37.1667 27.5333 37.45 26.85 37.45 26.05C37.45 25.25 37.1667 24.5667 36.6 24C36.0333 23.4333 35.35 23.15 34.55 23.15C33.75 23.15 33.0667 23.4333 32.5 24C31.9333 24.5667 31.65 25.25 31.65 26.05C31.65 26.85 31.9333 27.5333 32.5 28.1C33.0667 28.6667 33.75 28.95 34.55 28.95ZM31.95 18.75H41.25L35.7 11.35H31.95V18.75Z" fill="white"/>
</svg>
